<svg xmlns="http://www.w3.org/2000/svg" xmlns:xlink="http://www.w3.org/1999/xlink" width="120" height="120" viewBox="0 0 120 120">
    <defs>
        <circle id="a" cx="60" cy="60" r="60"/>
        <rect id="c" width="76.471" height="25.882" rx="7"/>
    </defs>
    <g fill="none" fill-rule="evenodd">
        <g>
            <mask id="b" fill="#fff">
                <use xlink:href="#a"/>
            </mask>
            <use fill="#0064D2" xlink:href="#a"/>
            <path fill="#FEDD00" d="M75.559 35.294H35.412a6 6 0 0 0-6 6v78.992h62.353V53.611L75.559 35.294z" mask="url(#b)"/>
        </g>
        <path fill="#FFF" d="M75.542 35.138v18.444h16.145z"/>
        <g transform="translate(21.176 64.706)">
            <use fill="#0064D2" xlink:href="#c"/>
            <rect width="73.471" height="22.882" x="1.5" y="1.5" stroke="#FEDD00" stroke-width="3" rx="7"/>
        </g>
        <path fill="#FEDD00" d="M36.623 82.98h-7.284V72.14h7.284v1.748h-5.091v2.79h4.17v1.748h-4.17v2.806h5.09v1.748zm11.214 0h-2.576l-2.606-3.91-2.7 3.91h-2.33l3.788-5.443-3.696-5.397h2.576l2.484 3.787 2.576-3.787H47.7l-3.664 5.336 3.802 5.504zm3.747 0h-2.192V72.14h4.201c.532 0 1.022.082 1.472.245.45.164.838.396 1.165.698.328.301.583.67.767 1.104.184.434.276.917.276 1.449 0 .542-.092 1.027-.276 1.456-.184.43-.44.795-.767 1.097a3.422 3.422 0 0 1-1.165.697c-.45.164-.94.246-1.472.246h-2.009v3.848zm1.764-5.596c.51 0 .922-.154 1.234-.46.312-.307.468-.741.468-1.304 0-.552-.156-.978-.468-1.28-.312-.301-.723-.452-1.234-.452h-1.764v3.496h1.764zm7.964 5.596h-2.239V72.14h2.239v10.84zm9.45.276a19.448 19.448 0 0 1-1.724-2.008 44.225 44.225 0 0 1-1.618-2.33h-1.41v4.062h-2.193V72.14h4.201c.532 0 1.025.082 1.48.245a3.39 3.39 0 0 1 1.165.69c.322.297.575.654.76 1.073.183.42.275.885.275 1.396 0 .766-.189 1.398-.567 1.893-.378.496-.89.862-1.533 1.097.45.634.897 1.221 1.341 1.763.445.542.913 1.068 1.403 1.58l-1.58 1.38zm-2.99-6.01c.522 0 .936-.148 1.243-.445.307-.296.46-.705.46-1.227 0-.52-.153-.932-.46-1.234-.307-.301-.72-.452-1.242-.452H66.01v3.358h1.763zM81.18 82.98h-7.283V72.14h7.283v1.748h-5.09v2.79h4.17v1.748h-4.17v2.806h5.09v1.748zm5.817-1.748c.46 0 .88-.086 1.258-.26.378-.174.697-.42.958-.736a3.41 3.41 0 0 0 .606-1.158 5.07 5.07 0 0 0 .214-1.526c0-.552-.071-1.055-.214-1.51a3.41 3.41 0 0 0-.606-1.158 2.664 2.664 0 0 0-.958-.736 2.976 2.976 0 0 0-1.258-.26h-1.686v7.344h1.686zm-3.925 1.748V72.14h4.094c.777 0 1.482.133 2.116.398a4.72 4.72 0 0 1 1.625 1.112c.45.475.795 1.048 1.035 1.717.24.67.36 1.403.36 2.2 0 .798-.12 1.529-.36 2.193a4.853 4.853 0 0 1-1.035 1.71 4.72 4.72 0 0 1-1.625 1.112c-.634.266-1.34.398-2.116.398h-4.094z"/>
        <path fill="#0064D2" fill-rule="nonzero" d="M39.412 60.745a1.333 1.333 0 1 1 0-2.667h38.823a1.333 1.333 0 1 1 0 2.667H39.412zM39.412 106.627a1.333 1.333 0 0 1 0-2.666h38.823a1.333 1.333 0 0 1 0 2.666H39.412zM48.235 98.392a1.333 1.333 0 0 1 0-2.667h22.353a1.333 1.333 0 1 1 0 2.667H48.235z"/>
        <g transform="translate(13.451 13.098)">
            <path fill="#99C1ED" fill-rule="nonzero" d="M34.745 1.225c-.124 0-.225-.223-.225-.5 0-.276.1-.5.225-.5h13.802c.125 0 .226.224.226.5 0 .277-.101.5-.226.5H34.745zM.667 23.873a.5.5 0 1 1 0-1h4.706a.5.5 0 1 1 0 1H.667zM87.137 38.873a.5.5 0 1 1 0-1h4.706a.5.5 0 0 1 0 1h-4.706zM85.96 81.696a.5.5 0 0 1 0 1h-2.94a.5.5 0 0 1 0-1h2.94z"/>
            <circle cx="26.549" cy="11.608" r="1.176" fill="#FFF"/>
            <circle cx="74.196" cy="12.196" r="1.765" fill="#FFF"/>
            <circle cx="4.784" cy="45.137" r="1.765" fill="#FFF"/>
            <circle cx="93.02" cy="56.902" r="1" fill="#FFF"/>
            <circle cx="7.137" cy="82.784" r="1" fill="#FFF"/>
        </g>
    </g>
</svg>
